HIERARCHY
ROOT Hips
{
     OFFSET 1.88212 96.90440 -13.34250
     CHANNELS 6 Xposition Yposition Zposition Zrotation Xrotation Yrotation
     JOINT Spine
     {
          OFFSET 0.00000 11.89050 0.00000
          CHANNELS 3 Zrotation Xrotation Yrotation
          JOINT Spine1
          {
               OFFSET -0.00000 25.65740 0.12766
               CHANNELS 3 Zrotation Xrotation Yrotation
               JOINT HEad
               {
                    OFFSET 0.00000 8.73416 0.01134
                    CHANNELS 3 Zrotation Xrotation Yrotation
                    End Site
                    {
                         OFFSET -0.29000 12.77420 2.51395
                    }
               }
               JOINT LeftShoulder1
               {
                    OFFSET 8.99000 -0.36225 -0.22000
                    CHANNELS 3 Zrotation Xrotation Yrotation
                    JOINT LeftArm
                    {
                         OFFSET 10.28270 -0.00338 0.32212
                         CHANNELS 3 Zrotation Xrotation Yrotation
                         JOINT LeftForeArm
                         {
                              OFFSET 32.76690 0.09914 -1.42434
                              CHANNELS 3 Zrotation Xrotation Yrotation
                              JOINT LeftHand
                              {
                                   OFFSET 27.56430 0.08536 1.02216
                                   CHANNELS 3 Zrotation Xrotation Yrotation
                                   End Site
                                   {
                                        OFFSET 16.74430 -0.60000 1.50291
                                   }
                              }
                         }
                    }
               }
               JOINT RightShoulder
               {
                    OFFSET -8.99000 -0.36225 -0.22000
                    CHANNELS 3 Zrotation Xrotation Yrotation
                    JOINT RightArm
                    {
                         OFFSET -10.28270 -0.00338 0.32212
                         CHANNELS 3 Zrotation Xrotation Yrotation
                         JOINT RightForeArm
                         {
                              OFFSET -32.89710 0.09914 -1.42434
                              CHANNELS 3 Zrotation Xrotation Yrotation
                              JOINT RightHand
                              {
                                   OFFSET -27.49210 0.08536 1.02216
                                   CHANNELS 3 Zrotation Xrotation Yrotation
                                   End Site
                                   {
                                        OFFSET -16.63120 -0.60000 1.50291
                                   }
                              }
                         }
                    }
               }
          }
     }
     JOINT LeftUpLeg
     {
          OFFSET 8.94580 -8.66707 0.10165
          CHANNELS 3 Zrotation Xrotation Yrotation
          JOINT LeftLeg
          {
               OFFSET 0.00000 -44.42270 1.37270
               CHANNELS 3 Zrotation Xrotation Yrotation
               JOINT LeftFoot
               {
                    OFFSET -0.25355 -42.09240 -1.46059
                    CHANNELS 3 Zrotation Xrotation Yrotation
                    JOINT LeftToes
                    {
                         OFFSET -0.04000 -4.41509 8.49910
                         CHANNELS 3 Zrotation Xrotation Yrotation
                         End Site
                         {
                              OFFSET 0.08000 -0.04745 9.77979
                         }
                    }
               }
          }
     }
     JOINT RightUpLeg
     {
          OFFSET -8.94580 -8.66707 0.10165
          CHANNELS 3 Zrotation Xrotation Yrotation
          JOINT RightLeg
          {
               OFFSET 0.00000 -44.42270 1.37270
               CHANNELS 3 Zrotation Xrotation Yrotation
               JOINT RightFoot
               {
                    OFFSET 0.25355 -42.09240 -1.46059
                    CHANNELS 3 Zrotation Xrotation Yrotation
                    JOINT RightToes
                    {
                         OFFSET 0.04000 -4.41509 8.49910
                         CHANNELS 3 Zrotation Xrotation Yrotation
                         End Site
                         {
                              OFFSET -0.08000 -0.13745 9.77979
                         }
                    }
               }
          }
     }
}
MOTION
Frames: 15
Frame Time: 0.01667
19.18136 95.99536 -17.07479 4.27216 11.15601 148.86823 -15.26358 17.35375 17.68988 0.03837 0.01651 -0.09636 -4.76789 25.03661 -9.14921 20.04353 4.95733 -36.37872 -2.05279 -57.03957 43.74508 -7.13021 3.26021 -76.73119 -19.00925 13.94236 -10.78592 27.86336 -0.42064 -38.62331 87.89828 2.12607 72.00700 33.76567 35.69984 85.98006 13.80961 22.56298 7.24459 27.59741 -14.29079 -9.70652 -44.67561 31.63122 85.41328 3.99646 -0.03215 0.01803 3.57174 -9.48710 -69.00936 -23.59046 14.36944 26.17407 18.25758 0.54770 -30.18002 -10.61190 0.30968 0.04659 -5.52696 -22.56949 -1.61698 
18.35460 95.71865 -18.40060 5.99789 9.15112 141.98195 -12.68817 17.62333 18.81806 0.03260 0.00865 -0.08046 -4.60101 19.89353 -7.25981 18.27469 4.19603 -32.96652 -8.25703 -48.34101 33.46022 0.16952 -1.66125 -75.10252 -22.87314 28.63714 3.67939 26.47830 -0.69507 -35.47902 92.08609 -5.65565 71.15126 29.79248 38.20498 88.65430 17.57609 13.59366 10.02840 29.19375 -10.12311 -8.72957 -42.04337 29.09997 78.52965 2.61348 -0.10723 0.02560 3.39601 -8.84025 -62.05841 -23.30234 10.14709 29.02139 21.00751 2.32697 -37.39568 -7.56223 0.33984 0.05979 -0.47141 -13.52175 -6.49799 
17.37159 95.36980 -19.82575 7.71653 6.62451 134.14546 -9.65672 18.04024 19.80571 0.02903 0.00441 -0.06963 -3.83404 14.27308 -4.15620 15.97477 3.86265 -28.30795 -10.73658 -39.33073 25.18395 4.10326 -4.22251 -74.18773 -29.71407 14.58482 -11.31927 24.62400 -0.42776 -31.23341 94.64796 -9.75627 70.57743 26.81139 40.61919 91.16028 19.48160 8.40577 13.40360 30.20627 -5.39288 -7.71107 -39.11195 26.61205 72.08496 0.63713 -0.17119 0.02131 -4.06628 -17.21828 -67.73180 -22.42123 4.84000 31.70748 25.06960 4.33549 -44.68152 -5.02592 0.31837 0.06201 -4.63948 -20.51952 6.76233 
16.25438 95.03170 -21.27921 9.27192 3.72720 125.54833 -6.47490 18.81800 20.72464 0.02326 0.00321 -0.06247 -3.48562 9.47173 0.61210 12.94252 3.92853 -22.43936 -10.33460 -31.59665 17.30822 4.75933 -4.42753 -73.77421 -11.91468 13.87595 -21.48339 22.31837 0.24916 -26.04236 96.00257 -11.68851 70.11501 24.81760 42.37931 93.10394 20.06347 5.85185 13.66580 30.58100 -0.31432 -6.59051 -35.85074 24.18564 66.16367 -1.77974 -0.22189 0.01206 1.61987 -12.54090 -50.49132 -20.78230 -1.20230 34.24608 30.28234 6.40275 -51.61377 -3.58368 0.23014 0.05894 3.75098 -14.46748 2.20950 
15.02521 94.75943 -22.69777 10.39442 1.13264 118.16084 -3.36854 20.26045 19.65112 0.01464 0.00512 -0.05777 -3.26864 5.61510 6.79723 9.31438 4.10127 -15.54190 -8.29526 -25.81298 9.39558 3.09077 -3.40257 -74.66589 -27.66936 15.12773 -14.72030 19.68855 1.16580 -19.98645 96.42137 -12.36280 69.73280 23.75590 43.39604 94.37518 20.45846 4.58396 14.71487 29.89601 4.06181 -6.95158 -32.20741 21.72934 60.91672 -4.54494 -0.25965 0.00486 2.42079 -15.55223 -44.20239 -19.04770 -6.81906 34.99591 36.49970 8.30102 -57.46429 -4.90952 0.00243 0.03273 -0.63769 -20.22400 17.28016 
13.70649 94.56013 -24.04646 11.25283 -1.05082 111.94609 -0.48869 22.03695 16.69102 0.00263 0.00987 -0.04965 -3.01701 2.77781 14.13266 5.43922 4.10357 -7.88674 -5.55973 -21.89214 1.30016 0.08820 -2.32316 -76.80672 -9.21010 3.11930 -21.41492 16.95955 2.18345 -13.14282 96.13232 -12.30884 69.46140 23.44305 43.78651 94.94549 20.46496 4.23623 14.20246 28.78888 7.84718 -8.75899 -29.82888 18.41080 58.72245 -6.25827 -0.14446 -0.02028 4.99451 -15.19328 -34.53822 -17.55497 -11.86526 33.99976 43.04688 11.94997 -60.22594 -8.97707 -0.11702 -0.04601 4.35198 -20.70794 20.88829 
12.30112 94.35469 -25.33344 11.96874 -2.75933 106.85807 1.98576 23.76644 12.09336 -0.01141 0.01662 -0.04219 -2.64455 0.99470 22.30552 0.84614 4.14774 -10.07985 1.84720 -19.76128 4.17821 -3.56376 -1.32026 -80.08909 -18.27779 17.54708 -14.67923 14.46895 3.27878 -5.62657 95.28066 -11.88150 69.35622 23.65508 43.70390 94.91598 20.61309 4.36230 14.44804 27.46752 10.94049 -10.82841 -27.99862 15.21336 58.13333 -7.22531 -0.06554 -0.01639 7.04073 -16.96898 -29.17648 -16.61407 -16.12945 31.27176 47.88570 16.03984 -60.35364 -12.01584 -0.10338 -0.00862 4.93712 -23.12471 25.84912 
10.83600 94.10460 -26.57599 12.61649 -3.98106 102.84357 3.80583 25.22685 6.26203 -0.02764 0.03127 -0.03816 -2.09234 0.11104 30.96292 -2.22859 3.46670 -0.82393 3.66695 -18.09139 -5.76727 -7.34942 -0.99337 -83.39572 -14.61451 2.49102 -15.44427 12.54335 4.43893 2.22275 93.97154 -11.18057 69.39754 24.18410 43.28490 94.47421 20.56496 4.85286 13.93846 26.12677 13.41966 -13.15404 -26.35864 11.91799 60.77577 -7.47804 -0.00772 -0.02467 8.35811 -17.27326 -26.35834 -16.51247 -19.37980 26.80888 51.29372 20.65214 -58.32450 -15.20509 -0.05818 0.00729 6.52964 -22.91457 26.89449 
9.36683 93.83476 -27.76880 13.47068 -3.68032 101.58240 4.90426 26.26515 -1.07860 -0.02157 0.00649 0.06381 -3.13517 0.31195 38.60915 -4.69619 3.05825 6.69566 5.08409 -17.39635 -16.06781 -10.83653 -0.73238 -86.28062 -12.60004 17.31355 -12.68395 11.11796 5.79454 8.63108 92.43124 -10.33219 69.55408 24.86387 42.61873 93.81342 20.78350 5.54608 13.94233 24.31770 15.00343 -17.52359 -25.11893 8.81403 65.92725 -7.18345 -0.00162 -0.02497 8.86824 -18.12772 -27.23537 -18.47035 -20.69471 20.41709 53.46325 24.95551 -55.49273 -17.76748 -0.01844 0.02212 6.69134 -22.97811 27.58083 
7.95328 93.56042 -28.88454 14.33726 -2.22979 102.63703 5.39483 26.70328 -9.33055 -0.02132 0.00914 0.06422 -5.59025 0.57671 45.25605 -6.50608 2.92888 12.92813 5.57009 -17.60759 -26.59484 -14.02650 -0.43113 -88.98086 -18.88588 4.62366 -10.24820 10.07588 7.27075 13.76583 90.84828 -9.42974 69.80807 25.57000 41.76746 93.04553 20.94657 6.35980 13.53109 23.01810 15.65551 -22.73436 -24.98324 6.15101 72.02477 -6.41870 -0.02055 -0.02552 8.58184 -19.11698 -30.34509 -22.12586 -20.30104 12.57432 54.56796 28.82894 -52.02539 -19.98839 0.00127 0.02685 6.86393 -22.22834 26.89270 
6.63680 93.30203 -29.90252 15.05632 -0.85911 103.74929 5.30830 26.64306 -15.95606 -0.01985 0.01426 0.05758 -9.15140 0.31469 50.70248 -7.76879 3.12459 17.81868 4.51001 -18.67396 -37.19405 -16.87308 0.63744 -91.63829 -8.12989 14.06733 -9.96191 9.32365 8.77678 17.60156 89.36336 -8.53931 70.15408 26.24788 40.78730 92.24234 21.27961 7.13849 13.46116 22.43091 15.90718 -26.51551 -25.84764 3.97002 78.63854 -5.39634 -0.04700 -0.02066 7.54466 -20.80036 -35.69977 -25.38627 -19.30511 5.54741 54.77996 32.19944 -48.11972 -21.66711 0.01193 0.02494 6.59860 -21.40061 26.07080 
5.43749 93.07743 -30.81566 15.61833 0.39758 104.87793 4.69491 26.33134 -21.01053 -0.01726 0.02052 0.04993 -12.04832 -0.03285 54.83812 -8.50732 3.65981 21.16298 1.17971 -20.51113 -47.68253 -19.75766 3.00907 -93.78623 -20.45085 6.96091 -7.16808 8.83761 10.25062 20.22647 88.04539 -7.69222 70.57910 26.89485 39.73631 91.44036 21.50831 7.84878 13.18119 22.34306 15.80349 -28.88409 -27.44860 2.23161 83.35296 -4.29453 -0.04727 0.00383 6.52822 -22.76364 -40.52301 -28.13874 -17.91094 -0.63067 54.26038 35.02198 -43.94881 -22.94060 0.01708 0.02118 6.34622 -20.27499 25.03467 
4.37358 92.89758 -31.63432 16.03836 1.51392 105.99506 3.67856 25.93515 -24.62516 -0.01395 0.02432 0.04268 -14.33325 -0.31482 57.75437 -8.81233 4.51237 23.14519 -5.04959 -23.09254 -57.55607 -21.45987 6.97252 -91.31231 4.55923 8.76258 -5.72629 8.62076 11.66251 21.79330 86.90137 -6.98074 71.06414 27.55313 38.65739 90.65677 21.78242 8.43550 13.12276 22.67293 15.44930 -29.91349 -29.73792 1.05509 86.28802 -3.29484 -0.03755 0.01128 5.54871 -25.03634 -44.89980 -30.24008 -15.63756 -4.98341 53.16679 36.03863 -39.72765 -23.82757 0.01964 0.01756 6.02805 -18.96577 24.17692 
3.44212 92.75768 -32.35814 16.34763 2.48152 107.07235 1.91460 26.37856 -25.78050 -0.07028 0.07005 0.11005 -15.28260 -0.72356 58.39913 -7.94546 5.14640 22.89845 -13.73544 -26.23498 -65.49248 -23.21537 13.18544 -87.08997 -12.18177 10.92999 2.96183 9.74705 12.26233 21.34907 85.85278 -6.34414 71.51843 28.21258 37.63061 90.00590 21.93037 8.95557 12.94530 23.38689 14.95234 -29.69399 -32.61622 0.58245 87.59589 -2.51345 -0.02493 0.01354 4.62707 -27.48258 -48.78204 -31.74673 -12.90663 -7.60875 51.99228 35.42673 -35.95210 -24.41411 0.02141 0.01488 5.78371 -17.42926 23.47551 
2.62913 92.64359 -32.97595 16.58104 3.30541 108.08216 -0.22245 27.48951 -24.82635 -0.05430 0.06991 0.10017 -15.43352 -1.04603 57.16666 -6.18183 5.65222 20.85760 -24.06323 -30.57531 -70.33086 -25.96446 21.12614 -83.37170 0.55990 11.75663 2.00118 11.75848 12.19877 19.26769 84.86869 -5.77240 71.85440 28.80317 36.74488 89.60040 22.04417 9.39913 12.89128 24.45389 14.40271 -28.31466 -35.91466 0.93526 87.47520 -1.98295 -0.01328 0.01193 3.81354 -30.02852 -52.16030 -32.82410 -10.01623 -8.64091 51.11835 33.42033 -32.99816 -24.73789 0.02330 0.01259 5.60188 -15.75725 22.99200 
